<?xml version="1.0" standalone="no"?><!DOCTYPE svg PUBLIC "-//W3C//DTD SVG 1.1//EN" "http://www.w3.org/Graphics/SVG/1.1/DTD/svg11.dtd"><svg t="1748830646151" class="icon" viewBox="0 0 1024 1024" version="1.1" xmlns="http://www.w3.org/2000/svg" p-id="13222" xmlns:xlink="http://www.w3.org/1999/xlink" width="48" height="48"><path d="M681.664735 915.956781 681.664735 447.327512l31.951537 0c17.682411 0 31.951737 14.270325 31.951737 31.951537l0 298.219008c0 76.468155 61.990371 138.458525 138.458525 138.458525 76.466955 0 138.458525-61.99057 138.458525-138.458525L1022.485059 204.068442c0-30.038834-12.357622-57.081499-32.161395-76.469354L877.412019 15.351592c-20.42795-20.467923-53.461953-20.467923-73.911088 0-20.446737 20.449135-20.446737 53.461953 0 73.890103l73.286712 73.491773-54.107315 56.457122c-17.682411 18.098329-17.682411 47.284341 0 65.403656 8.71689 9.360054 20.449135 13.833421 32.161395 13.623763l61.137749-0.208459 0 479.488707c0 17.682411-14.270325 31.951537-31.951737 31.951537-17.682411 0-31.951537-14.269325-31.951537-31.951537L852.076196 479.280248c0-76.466955-61.99177-138.458725-138.458725-138.458725l-31.951537 0 0-255.616492C681.665934 38.129148 643.536786 0 596.460904 0L149.130993 0C102.055111 0 63.925962 38.129148 63.925962 85.205031l0 830.75175-10.650979 0C23.880313 915.956781 0.021489 939.816804 0.021489 969.210275c0 29.393271 23.858824 53.253494 53.253494 53.253494l639.04073 0c29.393471 0 53.253494-23.858824 53.253494-53.253494 0-29.393471-23.860023-53.253494-53.253494-53.253494L681.664735 915.956781zM217.300374 106.505789l310.991348 0c25.981385 0 46.867424 20.886039 46.867424 46.867424l0 225.786117c0 25.981385-20.886039 46.867424-46.867424 46.867424L217.300374 426.026754c-25.981385 0-46.867424-20.886039-46.867424-46.867424L170.43295 153.373213C170.43295 127.393028 191.31899 106.505789 217.300374 106.505789z" fill="#d4237a" p-id="13223"></path></svg>