<?xml version="1.0" standalone="no"?><!DOCTYPE svg PUBLIC "-//W3C//DTD SVG 1.1//EN" "http://www.w3.org/Graphics/SVG/1.1/DTD/svg11.dtd"><svg t="1748830491708" class="icon" viewBox="0 0 1024 1024" version="1.1" xmlns="http://www.w3.org/2000/svg" p-id="9297" xmlns:xlink="http://www.w3.org/1999/xlink" width="48" height="48"><path d="M512 1024C229.225412 1024 0 794.774588 0 512S229.225412 0 512 0s512 229.225412 512 512-229.225412 512-512 512z m0-60.235294c249.494588 0 451.764706-202.270118 451.764706-451.764706 0-249.494588-202.270118-451.764706-451.764706-451.764706C262.505412 60.235294 60.235294 262.505412 60.235294 512c0 249.494588 202.270118 451.764706 451.764706 451.764706z m0-60.235294C295.755294 903.529412 120.470588 728.244706 120.470588 512S295.755294 120.470588 512 120.470588s391.529412 175.284706 391.529412 391.529412-175.284706 391.529412-391.529412 391.529412z m-89.780706-223.533177h0.030118V752.941176h42.827294v-72.944941h36.954353V752.941176h42.857412v-72.944941h6.354823c15.179294 0 30.298353-1.927529 44.995765-5.692235 13.703529-3.614118 26.774588-9.246118 38.851765-16.715294a110.772706 110.772706 0 0 0 33.340235-32.527059 81.739294 81.739294 0 0 0 0-90.352941 110.411294 110.411294 0 0 0-33.340235-32.527059l-4.638118-2.710588c6.234353-6.234353 11.595294-13.221647 15.962353-20.841412a81.92 81.92 0 0 0 0-81.618823 98.906353 98.906353 0 0 0-27.708235-30.870589 115.862588 115.862588 0 0 0-34.153412-16.865882 136.432941 136.432941 0 0 0-38.79153-5.632h-0.903529V271.058824h-42.827294v72.583529h-36.954353V271.058824h-42.857412v72.583529h-90.654118v48.911059H371.922824c9.577412 0 17.347765 7.770353 17.347764 17.347764v203.866353a17.408 17.408 0 0 1-17.377882 17.377883h-31.924706L331.294118 679.996235h90.925176z m163.147294-118.302117c7.348706 10.992941 7.348706 25.328941 0 36.352a60.837647 60.837647 0 0 1-18.492235 18.070588 90.533647 90.533647 0 0 1-25.178353 10.842353c-10.691765 2.770824-21.684706 4.216471-32.737882 4.21647h-43.881412v-102.550588h43.881412c11.053176 0 22.046118 1.415529 32.737882 4.216471 8.884706 2.258824 17.377882 5.903059 25.178353 10.782117 7.378824 4.638118 13.703529 10.782118 18.492235 18.070589z m-120.289882-169.170824h42.977882c8.372706 0.030118 16.685176 1.234824 24.726588 3.614118 7.017412 2.108235 13.613176 5.360941 19.546353 9.637647 5.692235 4.126118 10.450824 9.426824 13.944471 15.540706 5.842824 10.24 5.842824 22.768941 0 33.008941a50.266353 50.266353 0 0 1-13.944471 15.540706 65.656471 65.656471 0 0 1-19.546353 9.637647c-8.011294 2.409412-16.353882 3.614118-24.726588 3.614117h-42.977882v-90.593882z" fill="#40E266" p-id="9298"></path></svg>